# xmcd
#
# Track frame offsets:
#	150
#	15432
#	30210
#	44357
#	61335
#	76492
#	91020
#	105600
#	123890
#	142355
#	156530
#
# Disc length: 2300 seconds
#
# Revision: 1
# Processed by: cddbd v1.5.1PL2 Copyright (c) Steve Scherf et al.
# Submitted via: audiograbber 1.83.01
#
DISCID=8508fa0b
DTITLE=Various Artist - Circuit Rider Records #20
DYEAR=1999
DGENRE=Country
TTITLE0=Presson, Garry - He will come
TTITLE1=Earlene, Gayla - The door
TTITLE2=Biddy, J.W. - Angel in disguise
TTITLE3=DeRamus, Judy - God's peace
TTITLE4=Phillips, Bob - In the palm of My hands
TTITLE5=Taylor, W.C. Jr. - Jesus knew
TTITLE6=Price, Joe - when the storm is over
TTITLE7=Alexander, Sue - Place of grace
TTITLE8=Marsh, Sharon Leigh - I love you Lord
TTITLE9=Crain, Gene - Blood bought church
TTITLE10=Varney, Arlene - His hand can reach your heart
EXTD=
EXTT0=
EXTT1=
EXTT2=
EXTT3=
EXTT4=
EXTT5=
EXTT6=
EXTT7=
EXTT8=
EXTT9=
EXTT10=
PLAYORDER=
